<svg width="142" height="122" viewBox="0 0 142 122" fill="none" xmlns="http://www.w3.org/2000/svg">
<path d="M27.18 31.93C27.18 31.93 25.06 26.04 25.09 21.19C25.09 21.19 24.72 13.7 31.2 10.14C31.2 10.14 35.5 7.47002 44.76 10.32C44.76 10.32 55.29 13.23 63.2 17.41C63.2 17.41 64.43 12.16 66.02 9.22001C66.02 9.22001 67.68 5.45002 72.22 2.10002C72.22 2.10002 75.99 -0.689999 80.69 0.990001C80.69 0.990001 86.12 2.92001 91.83 9.06001C91.83 9.06001 100.21 17.99 104.44 24.92C104.44 24.92 108.34 20.66 111.13 18.29C111.13 18.29 115.92 14.12 121.41 12.24C121.41 12.24 127.21 9.66002 131.81 14.76C131.81 14.76 135.65 18.26 138.1 28.23C138.1 28.23 141.48 43.23 141.63 52.56C141.63 52.56 142.24 65.75 141.48 71.64C141.48 71.64 141.05 78.82 138.78 84.31C138.78 84.31 136.91 89.43 131.78 93.52C131.78 93.52 125.15 99.66 115.3 105.24C115.3 105.24 102.75 112.67 94.1 116.01C94.1 116.01 85.02 120.34 77.04 120.98C77.04 120.98 70.47 122.18 64.98 117.14C64.98 117.14 60.74 113.12 62.28 104.9C62.28 104.9 62.99 100.08 63.97 97.48C63.97 97.48 62.74 92.78 62.53 91.01C62.53 91.01 60.93 89.54 59.77 88.06C59.77 88.06 52.96 86.22 42.34 80.85C42.34 80.85 28.87 74.1 20.62 68.27C20.62 68.27 7.67 60.05 3.07 53.66C3.07 53.66 -1.29001 48.54 1.13999 42.09C1.13999 42.09 2.51999 37.49 11.54 34.76C11.54 34.76 17.12 33.13 27.19 31.91" fill="white"/>
<path d="M121.69 19.19C121.69 19.19 123.67 18.06 124.98 18.08C124.98 18.08 127.33 17.89 129.33 22.62C129.33 22.62 131.98 28.05 133.11 35.73C133.11 35.73 135.32 48.49 135.41 57.64C135.41 57.64 135.93 68.75 134.45 75.78C134.45 75.78 133.68 80.42 132.22 83.37C132.22 83.37 130.69 85.81 128.6 87.78C128.6 87.78 123.01 93 116.94 96.71C116.94 96.71 105.83 103.8 97.21 107.64C97.21 107.64 87.39 112.21 81.13 113.84C81.13 113.84 75.9 115.22 73.38 114.47C73.38 114.47 70.55 113.78 70.79 108.84C70.79 108.84 70.98 104.05 73.86 95.71C73.86 95.71 77.67 85.52 81.26 78.25C81.26 78.25 89.97 61.22 94.06 54.68C94.06 54.68 101.73 41.58 110.41 30.5C110.41 30.5 115.87 23.34 121.7 19.2" fill="#97D700"/>
<path d="M101.28 31.87C101.28 31.87 97.38 37.55 96.03 39.42C96.03 39.42 91.18 46.94 88.36 51.63C88.36 51.63 81.46 63.29 78.69 69.03C78.69 69.03 74.58 77.32 72.8 81.27C72.8 81.27 71.2 84.67 70.65 86.21C70.65 86.21 69.45 77.68 68.96 69.18C68.96 69.18 68.41 57.09 68.56 52.09C68.56 52.09 68.71 41.63 69.08 36.72C69.08 36.72 69.82 28.37 70.31 24.48C70.31 24.48 71.45 15.77 73.53 10.92C73.53 10.92 74.7 7.72998 76.69 6.95998C76.75 6.92998 78.16 6.43999 81.11 8.27999C81.11 8.27999 85.16 11.01 89.3 15.8C89.3 15.8 93.44 20.52 96.85 25.28C96.85 25.28 100.81 31.05 101.27 31.88" fill="#C8102E"/>
<path d="M63.76 24.87C63.76 24.87 56.43 21.03 50.32 18.79C50.32 18.79 42.96 16.09 38.66 15.6C38.66 15.6 34.92 15.23 33.69 16.18C33.69 16.18 32.52 17.04 32.59 19.25C32.59 19.25 32.59 21.64 33.73 25.63C33.73 25.63 35.11 30.2 37.11 34.78C37.11 34.78 41.1 43.68 43.62 48.31C43.62 48.31 48.74 57.67 51.11 61.47C51.11 61.47 56.85 70.58 59.76 74.63C59.76 74.63 62 77.64 63.35 79.32C63.35 79.32 62.52 69.99 62.4 66.13C62.4 66.13 61.88 53.79 62.18 49.16C62.18 49.16 62.61 37.19 63.01 32.13C63.01 32.13 63.65 25.62 63.78 24.86" fill="#FF671F"/>
<path d="M31.48 38.07C31.48 38.07 37.34 50.96 40.53 56.08C40.53 56.08 45.72 65.29 48.6 69.67C48.6 69.67 53.73 77.37 54.46 78.26C54.46 78.26 50.41 76.42 47.65 75.1C47.65 75.1 39.33 70.84 34.52 68.01C34.52 68.01 26.36 63.22 23.04 60.77C23.04 60.77 16.2 56.23 11.69 51.99C11.69 51.99 8.28 49.01 7.3 46.5C7.3 46.5 6.47 44.84 7.88 43.62C7.88 43.62 9.28999 42.18 13.86 40.83C13.86 40.83 17.45 39.79 22.54 38.96C22.54 38.96 29.14 38.22 31.47 38.07" fill="#FFCD00"/>
</svg>
